# xmcd
#
# Track frame offsets: 
#        150
#        11200
#        23375
#        38400
#        58045
#        68712
#        79705
#        95022
#        106235
#        118880
#
# Disc length: 1764 seconds
#
# Revision: 3
# Processed by: cddbd v1.5.2PL0 Copyright (c) Steve Scherf et al.
# Submitted via: ExactAudioCopy v0.99pb5
#
DISCID=7506e20a
DTITLE=Conway Twitty - The Very Best Of
DYEAR=1978
DGENRE=Country
TTITLE0=Hello Darlin'
TTITLE1=Linda On My mind
TTITLE2=Georgia Keeps Pulling On My Ring
TTITLE3=Don't Cry Joni
TTITLE4=It's Only Make Believe
TTITLE5=(I Can't Believe) She Gives It All To Me
TTITLE6=Play, Guitar Play
TTITLE7=This Time I've Hurt Her More Than She Loves Me
TTITLE8=I've Already Loved You In My Mind
TTITLE9=You've Never Been This Far Before
EXTD=YEAR: 1978
EXTT0=
EXTT1=
EXTT2=
EXTT3=
EXTT4=
EXTT5=
EXTT6=
EXTT7=
EXTT8=
EXTT9=
PLAYORDER=
